<mxfile host="app.diagrams.net" modified="2022-05-12T15:44:59.061Z" agent="5.0 (Windows NT 10.0; Win64; x64) AppleWebKit/537.36 (KHTML, like Gecko) Chrome/101.0.4951.64 Safari/537.36" etag="GZJw4qy9YIlyozclxz-8" version="18.0.3" type="github">
  <diagram id="yAM6Byc1PwFym0VlvqPB" name="Page-1">
    <mxGraphModel dx="1237" dy="683" grid="1" gridSize="10" guides="1" tooltips="1" connect="1" arrows="1" fold="1" page="1" pageScale="1" pageWidth="1654" pageHeight="2336" math="0" shadow="0">
      <root>
        <mxCell id="0" />
        <mxCell id="1" parent="0" />
        <mxCell id="cXizYQNHtDUrmTa4HkwB-1" value="마이페이지 상담" style="rounded=0;whiteSpace=wrap;html=1;fillColor=#ffe6cc;strokeColor=#d79b00;" parent="1" vertex="1">
          <mxGeometry x="350" y="130" width="110" height="30" as="geometry" />
        </mxCell>
        <mxCell id="cXizYQNHtDUrmTa4HkwB-2" value="로그인" style="rounded=0;whiteSpace=wrap;html=1;fillColor=#f5f5f5;strokeColor=#666666;fontColor=#333333;" parent="1" vertex="1">
          <mxGeometry x="170" y="130" width="110" height="30" as="geometry" />
        </mxCell>
        <mxCell id="cXizYQNHtDUrmTa4HkwB-5" value="" style="endArrow=classic;html=1;rounded=0;exitX=1;exitY=0.5;exitDx=0;exitDy=0;fillColor=#dae8fc;strokeColor=#6c8ebf;" parent="1" source="cXizYQNHtDUrmTa4HkwB-2" target="cXizYQNHtDUrmTa4HkwB-1" edge="1">
          <mxGeometry width="50" height="50" relative="1" as="geometry">
            <mxPoint x="770" y="440" as="sourcePoint" />
            <mxPoint x="820" y="390" as="targetPoint" />
          </mxGeometry>
        </mxCell>
        <mxCell id="cXizYQNHtDUrmTa4HkwB-10" value="" style="endArrow=classic;html=1;rounded=0;exitX=0.5;exitY=0;exitDx=0;exitDy=0;entryX=0.5;entryY=0;entryDx=0;entryDy=0;fillColor=#f8cecc;strokeColor=#b85450;" parent="1" source="cXizYQNHtDUrmTa4HkwB-1" target="cXizYQNHtDUrmTa4HkwB-2" edge="1">
          <mxGeometry width="50" height="50" relative="1" as="geometry">
            <mxPoint x="770" y="430" as="sourcePoint" />
            <mxPoint x="820" y="380" as="targetPoint" />
            <Array as="points">
              <mxPoint x="405" y="110" />
              <mxPoint x="310" y="110" />
              <mxPoint x="225" y="110" />
            </Array>
          </mxGeometry>
        </mxCell>
        <mxCell id="cXizYQNHtDUrmTa4HkwB-11" value="yes" style="text;html=1;strokeColor=none;fillColor=none;align=center;verticalAlign=middle;whiteSpace=wrap;rounded=0;" parent="1" vertex="1">
          <mxGeometry x="280" y="140" width="60" height="30" as="geometry" />
        </mxCell>
        <mxCell id="cXizYQNHtDUrmTa4HkwB-12" value="no" style="text;html=1;strokeColor=none;fillColor=none;align=center;verticalAlign=middle;whiteSpace=wrap;rounded=0;" parent="1" vertex="1">
          <mxGeometry x="290" y="90" width="60" height="30" as="geometry" />
        </mxCell>
        <mxCell id="VwRAQl57d2dZyOm9E2EN-51" style="edgeStyle=orthogonalEdgeStyle;rounded=0;orthogonalLoop=1;jettySize=auto;html=1;entryX=0;entryY=0.5;entryDx=0;entryDy=0;fontSize=9;" edge="1" parent="1" source="cXizYQNHtDUrmTa4HkwB-15" target="VwRAQl57d2dZyOm9E2EN-44">
          <mxGeometry relative="1" as="geometry" />
        </mxCell>
        <mxCell id="cXizYQNHtDUrmTa4HkwB-15" value="인테리어" style="rounded=0;whiteSpace=wrap;html=1;fillColor=#ffe6cc;strokeColor=#d79b00;" parent="1" vertex="1">
          <mxGeometry x="620" y="90" width="110" height="30" as="geometry" />
        </mxCell>
        <mxCell id="VwRAQl57d2dZyOm9E2EN-52" style="edgeStyle=orthogonalEdgeStyle;rounded=0;orthogonalLoop=1;jettySize=auto;html=1;fontSize=9;" edge="1" parent="1" source="cXizYQNHtDUrmTa4HkwB-16" target="VwRAQl57d2dZyOm9E2EN-47">
          <mxGeometry relative="1" as="geometry" />
        </mxCell>
        <mxCell id="cXizYQNHtDUrmTa4HkwB-16" value="리모델링" style="rounded=0;whiteSpace=wrap;html=1;fillColor=#ffe6cc;strokeColor=#d79b00;" parent="1" vertex="1">
          <mxGeometry x="620" y="130" width="110" height="30" as="geometry" />
        </mxCell>
        <mxCell id="VwRAQl57d2dZyOm9E2EN-53" style="edgeStyle=orthogonalEdgeStyle;rounded=0;orthogonalLoop=1;jettySize=auto;html=1;entryX=0;entryY=0.5;entryDx=0;entryDy=0;fontSize=9;" edge="1" parent="1" source="cXizYQNHtDUrmTa4HkwB-17" target="VwRAQl57d2dZyOm9E2EN-48">
          <mxGeometry relative="1" as="geometry" />
        </mxCell>
        <mxCell id="cXizYQNHtDUrmTa4HkwB-17" value="AS" style="rounded=0;whiteSpace=wrap;html=1;fillColor=#ffe6cc;strokeColor=#d79b00;" parent="1" vertex="1">
          <mxGeometry x="620" y="180" width="110" height="30" as="geometry" />
        </mxCell>
        <mxCell id="cXizYQNHtDUrmTa4HkwB-21" value="유저 사용내역 존재" style="rounded=0;whiteSpace=wrap;html=1;fillColor=#dae8fc;strokeColor=#6c8ebf;" parent="1" vertex="1">
          <mxGeometry x="489" y="130" width="110" height="30" as="geometry" />
        </mxCell>
        <mxCell id="cXizYQNHtDUrmTa4HkwB-22" value="" style="endArrow=classic;html=1;rounded=0;exitX=1;exitY=0.5;exitDx=0;exitDy=0;entryX=0;entryY=0.5;entryDx=0;entryDy=0;" parent="1" source="cXizYQNHtDUrmTa4HkwB-1" target="cXizYQNHtDUrmTa4HkwB-21" edge="1">
          <mxGeometry width="50" height="50" relative="1" as="geometry">
            <mxPoint x="770" y="430" as="sourcePoint" />
            <mxPoint x="820" y="380" as="targetPoint" />
          </mxGeometry>
        </mxCell>
        <mxCell id="cXizYQNHtDUrmTa4HkwB-23" value="" style="endArrow=classic;html=1;rounded=0;fillColor=#dae8fc;strokeColor=#6c8ebf;entryX=0;entryY=0.5;entryDx=0;entryDy=0;" parent="1" target="cXizYQNHtDUrmTa4HkwB-15" edge="1">
          <mxGeometry width="50" height="50" relative="1" as="geometry">
            <mxPoint x="570" y="130" as="sourcePoint" />
            <mxPoint x="614" y="100" as="targetPoint" />
            <Array as="points">
              <mxPoint x="570" y="105" />
            </Array>
          </mxGeometry>
        </mxCell>
        <mxCell id="cXizYQNHtDUrmTa4HkwB-24" value="" style="endArrow=classic;html=1;rounded=0;fillColor=#dae8fc;strokeColor=#6c8ebf;entryX=0;entryY=0.5;entryDx=0;entryDy=0;" parent="1" target="cXizYQNHtDUrmTa4HkwB-17" edge="1">
          <mxGeometry width="50" height="50" relative="1" as="geometry">
            <mxPoint x="570" y="160" as="sourcePoint" />
            <mxPoint x="610" y="205" as="targetPoint" />
            <Array as="points">
              <mxPoint x="570" y="195" />
            </Array>
          </mxGeometry>
        </mxCell>
        <mxCell id="cXizYQNHtDUrmTa4HkwB-26" value="" style="endArrow=classic;html=1;rounded=0;fillColor=#dae8fc;strokeColor=#6c8ebf;entryX=0;entryY=0.5;entryDx=0;entryDy=0;" parent="1" target="cXizYQNHtDUrmTa4HkwB-16" edge="1">
          <mxGeometry width="50" height="50" relative="1" as="geometry">
            <mxPoint x="600" y="145" as="sourcePoint" />
            <mxPoint x="360" y="155" as="targetPoint" />
          </mxGeometry>
        </mxCell>
        <mxCell id="cXizYQNHtDUrmTa4HkwB-28" value="기본 상담창" style="rounded=0;whiteSpace=wrap;html=1;fillColor=#ffe6cc;strokeColor=#d79b00;" parent="1" vertex="1">
          <mxGeometry x="620" y="220" width="110" height="30" as="geometry" />
        </mxCell>
        <mxCell id="cXizYQNHtDUrmTa4HkwB-29" value="" style="endArrow=classic;html=1;rounded=0;entryX=0;entryY=0.25;entryDx=0;entryDy=0;exitX=0.643;exitY=1.032;exitDx=0;exitDy=0;exitPerimeter=0;fillColor=#f8cecc;strokeColor=#b85450;" parent="1" source="cXizYQNHtDUrmTa4HkwB-21" target="cXizYQNHtDUrmTa4HkwB-28" edge="1">
          <mxGeometry width="50" height="50" relative="1" as="geometry">
            <mxPoint x="580" y="180" as="sourcePoint" />
            <mxPoint x="630" y="130" as="targetPoint" />
            <Array as="points">
              <mxPoint x="560" y="228" />
            </Array>
          </mxGeometry>
        </mxCell>
        <mxCell id="cXizYQNHtDUrmTa4HkwB-30" value="메뉴바" style="rounded=0;whiteSpace=wrap;html=1;fillColor=#ffe6cc;strokeColor=#d79b00;" parent="1" vertex="1">
          <mxGeometry x="350" y="240" width="110" height="30" as="geometry" />
        </mxCell>
        <mxCell id="cXizYQNHtDUrmTa4HkwB-31" value="" style="endArrow=classic;html=1;rounded=0;entryX=0.5;entryY=0;entryDx=0;entryDy=0;exitX=0.5;exitY=1;exitDx=0;exitDy=0;" parent="1" source="cXizYQNHtDUrmTa4HkwB-1" target="cXizYQNHtDUrmTa4HkwB-30" edge="1">
          <mxGeometry width="50" height="50" relative="1" as="geometry">
            <mxPoint x="220" y="280" as="sourcePoint" />
            <mxPoint x="270" y="230" as="targetPoint" />
          </mxGeometry>
        </mxCell>
        <mxCell id="cXizYQNHtDUrmTa4HkwB-32" value="인테리어 진행내역" style="rounded=0;whiteSpace=wrap;html=1;fillColor=#ffe6cc;strokeColor=#d79b00;" parent="1" vertex="1">
          <mxGeometry x="190" y="320" width="110" height="30" as="geometry" />
        </mxCell>
        <mxCell id="cXizYQNHtDUrmTa4HkwB-33" value="개인정보 수정" style="rounded=0;whiteSpace=wrap;html=1;fillColor=#ffe6cc;strokeColor=#d79b00;" parent="1" vertex="1">
          <mxGeometry x="379" y="320" width="110" height="30" as="geometry" />
        </mxCell>
        <mxCell id="VwRAQl57d2dZyOm9E2EN-25" style="edgeStyle=orthogonalEdgeStyle;rounded=0;orthogonalLoop=1;jettySize=auto;html=1;entryX=0.5;entryY=0;entryDx=0;entryDy=0;fontSize=9;" edge="1" parent="1" source="cXizYQNHtDUrmTa4HkwB-34" target="VwRAQl57d2dZyOm9E2EN-23">
          <mxGeometry relative="1" as="geometry" />
        </mxCell>
        <mxCell id="cXizYQNHtDUrmTa4HkwB-34" value="리뷰 관리" style="rounded=0;whiteSpace=wrap;html=1;fillColor=#ffe6cc;strokeColor=#d79b00;" parent="1" vertex="1">
          <mxGeometry x="680" y="320" width="110" height="30" as="geometry" />
        </mxCell>
        <mxCell id="VwRAQl57d2dZyOm9E2EN-36" style="edgeStyle=orthogonalEdgeStyle;rounded=0;orthogonalLoop=1;jettySize=auto;html=1;entryX=0;entryY=0.5;entryDx=0;entryDy=0;fontSize=9;" edge="1" parent="1" source="cXizYQNHtDUrmTa4HkwB-35" target="VwRAQl57d2dZyOm9E2EN-35">
          <mxGeometry relative="1" as="geometry" />
        </mxCell>
        <mxCell id="cXizYQNHtDUrmTa4HkwB-35" value="장비 AS 조회" style="rounded=0;whiteSpace=wrap;html=1;fillColor=#ffe6cc;strokeColor=#d79b00;" parent="1" vertex="1">
          <mxGeometry x="820" y="320" width="110" height="30" as="geometry" />
        </mxCell>
        <mxCell id="VwRAQl57d2dZyOm9E2EN-1" value="" style="endArrow=classic;html=1;rounded=0;entryX=0.538;entryY=-0.006;entryDx=0;entryDy=0;entryPerimeter=0;exitX=-0.003;exitY=0.629;exitDx=0;exitDy=0;exitPerimeter=0;" edge="1" parent="1" source="cXizYQNHtDUrmTa4HkwB-30" target="cXizYQNHtDUrmTa4HkwB-32">
          <mxGeometry width="50" height="50" relative="1" as="geometry">
            <mxPoint x="350" y="250" as="sourcePoint" />
            <mxPoint x="450" y="240" as="targetPoint" />
            <Array as="points">
              <mxPoint x="249" y="260" />
            </Array>
          </mxGeometry>
        </mxCell>
        <mxCell id="VwRAQl57d2dZyOm9E2EN-2" value="" style="endArrow=classic;html=1;rounded=0;entryX=0.352;entryY=-0.038;entryDx=0;entryDy=0;entryPerimeter=0;exitX=0.612;exitY=0.978;exitDx=0;exitDy=0;exitPerimeter=0;" edge="1" parent="1" source="cXizYQNHtDUrmTa4HkwB-30" target="cXizYQNHtDUrmTa4HkwB-33">
          <mxGeometry width="50" height="50" relative="1" as="geometry">
            <mxPoint x="400" y="290" as="sourcePoint" />
            <mxPoint x="450" y="240" as="targetPoint" />
          </mxGeometry>
        </mxCell>
        <mxCell id="VwRAQl57d2dZyOm9E2EN-3" value="" style="endArrow=classic;html=1;rounded=0;entryX=0.5;entryY=0;entryDx=0;entryDy=0;" edge="1" parent="1" target="cXizYQNHtDUrmTa4HkwB-34">
          <mxGeometry width="50" height="50" relative="1" as="geometry">
            <mxPoint x="460" y="260" as="sourcePoint" />
            <mxPoint x="450" y="240" as="targetPoint" />
            <Array as="points">
              <mxPoint x="735" y="260" />
            </Array>
          </mxGeometry>
        </mxCell>
        <mxCell id="VwRAQl57d2dZyOm9E2EN-4" value="" style="endArrow=classic;html=1;rounded=0;entryX=0.465;entryY=-0.038;entryDx=0;entryDy=0;entryPerimeter=0;exitX=1.001;exitY=0.629;exitDx=0;exitDy=0;exitPerimeter=0;" edge="1" parent="1" source="cXizYQNHtDUrmTa4HkwB-30" target="cXizYQNHtDUrmTa4HkwB-35">
          <mxGeometry width="50" height="50" relative="1" as="geometry">
            <mxPoint x="480" y="240" as="sourcePoint" />
            <mxPoint x="530" y="190" as="targetPoint" />
            <Array as="points">
              <mxPoint x="580" y="260" />
              <mxPoint x="710" y="260" />
              <mxPoint x="870" y="260" />
            </Array>
          </mxGeometry>
        </mxCell>
        <mxCell id="VwRAQl57d2dZyOm9E2EN-5" value="&lt;font style=&quot;font-size: 9px;&quot;&gt;유저 인테리어 데이터 존재&lt;/font&gt;" style="rounded=0;whiteSpace=wrap;html=1;fillColor=#dae8fc;strokeColor=#6c8ebf;" vertex="1" parent="1">
          <mxGeometry x="110" y="380" width="110" height="30" as="geometry" />
        </mxCell>
        <mxCell id="VwRAQl57d2dZyOm9E2EN-6" value="" style="endArrow=classic;html=1;rounded=0;exitX=0;exitY=0.75;exitDx=0;exitDy=0;" edge="1" parent="1" source="cXizYQNHtDUrmTa4HkwB-32">
          <mxGeometry width="50" height="50" relative="1" as="geometry">
            <mxPoint x="250" y="290" as="sourcePoint" />
            <mxPoint x="160" y="380" as="targetPoint" />
            <Array as="points">
              <mxPoint x="160" y="343" />
            </Array>
          </mxGeometry>
        </mxCell>
        <mxCell id="VwRAQl57d2dZyOm9E2EN-7" value="인테리어&amp;nbsp;활성화 창" style="rounded=0;whiteSpace=wrap;html=1;fillColor=#ffe6cc;strokeColor=#d79b00;" vertex="1" parent="1">
          <mxGeometry x="30" y="460" width="110" height="30" as="geometry" />
        </mxCell>
        <mxCell id="VwRAQl57d2dZyOm9E2EN-8" value="&lt;font style=&quot;font-size: 10px;&quot;&gt;인테리어 비활성화 창&lt;/font&gt;" style="rounded=0;whiteSpace=wrap;html=1;fillColor=#ffe6cc;strokeColor=#d79b00;" vertex="1" parent="1">
          <mxGeometry x="180" y="460" width="110" height="30" as="geometry" />
        </mxCell>
        <mxCell id="VwRAQl57d2dZyOm9E2EN-9" value="" style="endArrow=classic;html=1;rounded=0;fontSize=10;exitX=0;exitY=0.5;exitDx=0;exitDy=0;fillColor=#dae8fc;strokeColor=#6c8ebf;" edge="1" parent="1" source="VwRAQl57d2dZyOm9E2EN-5">
          <mxGeometry width="50" height="50" relative="1" as="geometry">
            <mxPoint x="250" y="420" as="sourcePoint" />
            <mxPoint x="80" y="460" as="targetPoint" />
            <Array as="points">
              <mxPoint x="80" y="395" />
            </Array>
          </mxGeometry>
        </mxCell>
        <mxCell id="VwRAQl57d2dZyOm9E2EN-10" value="" style="endArrow=classic;html=1;rounded=0;fontSize=10;entryX=0.5;entryY=0;entryDx=0;entryDy=0;exitX=1;exitY=0.5;exitDx=0;exitDy=0;fillColor=#dae8fc;strokeColor=#6c8ebf;" edge="1" parent="1" source="VwRAQl57d2dZyOm9E2EN-5" target="VwRAQl57d2dZyOm9E2EN-8">
          <mxGeometry width="50" height="50" relative="1" as="geometry">
            <mxPoint x="250" y="420" as="sourcePoint" />
            <mxPoint x="300" y="370" as="targetPoint" />
            <Array as="points">
              <mxPoint x="235" y="395" />
            </Array>
          </mxGeometry>
        </mxCell>
        <mxCell id="VwRAQl57d2dZyOm9E2EN-11" value="&lt;span style=&quot;font-size: 10px;&quot;&gt;개인정보 수정(update)&lt;/span&gt;" style="rounded=0;whiteSpace=wrap;html=1;fillColor=#ffe6cc;strokeColor=#d79b00;" vertex="1" parent="1">
          <mxGeometry x="320" y="460" width="110" height="30" as="geometry" />
        </mxCell>
        <mxCell id="VwRAQl57d2dZyOm9E2EN-12" value="&lt;span style=&quot;font-size: 10px;&quot;&gt;개인정보 삭제(delete)&lt;/span&gt;" style="rounded=0;whiteSpace=wrap;html=1;fillColor=#ffe6cc;strokeColor=#d79b00;" vertex="1" parent="1">
          <mxGeometry x="460" y="460" width="110" height="30" as="geometry" />
        </mxCell>
        <mxCell id="VwRAQl57d2dZyOm9E2EN-19" style="edgeStyle=orthogonalEdgeStyle;rounded=0;orthogonalLoop=1;jettySize=auto;html=1;fontSize=10;entryX=0.25;entryY=0;entryDx=0;entryDy=0;fillColor=#dae8fc;strokeColor=#6c8ebf;" edge="1" parent="1" source="VwRAQl57d2dZyOm9E2EN-13" target="VwRAQl57d2dZyOm9E2EN-11">
          <mxGeometry relative="1" as="geometry">
            <mxPoint x="350" y="450" as="targetPoint" />
            <Array as="points">
              <mxPoint x="348" y="400" />
            </Array>
          </mxGeometry>
        </mxCell>
        <mxCell id="VwRAQl57d2dZyOm9E2EN-21" style="edgeStyle=orthogonalEdgeStyle;rounded=0;orthogonalLoop=1;jettySize=auto;html=1;fontSize=10;entryX=0.5;entryY=0;entryDx=0;entryDy=0;fillColor=#dae8fc;strokeColor=#6c8ebf;" edge="1" parent="1" source="VwRAQl57d2dZyOm9E2EN-13" target="VwRAQl57d2dZyOm9E2EN-12">
          <mxGeometry relative="1" as="geometry">
            <mxPoint x="520" y="440" as="targetPoint" />
            <Array as="points">
              <mxPoint x="515" y="400" />
            </Array>
          </mxGeometry>
        </mxCell>
        <mxCell id="VwRAQl57d2dZyOm9E2EN-13" value="&lt;font style=&quot;font-size: 10px;&quot;&gt;유저 개인 데이터 존재&lt;/font&gt;&lt;br&gt;" style="rounded=0;whiteSpace=wrap;html=1;fillColor=#dae8fc;strokeColor=#6c8ebf;" vertex="1" parent="1">
          <mxGeometry x="379" y="380" width="110" height="30" as="geometry" />
        </mxCell>
        <mxCell id="VwRAQl57d2dZyOm9E2EN-14" value="" style="endArrow=classic;html=1;rounded=0;fontSize=10;entryX=0.5;entryY=0;entryDx=0;entryDy=0;exitX=0.5;exitY=1;exitDx=0;exitDy=0;" edge="1" parent="1" source="cXizYQNHtDUrmTa4HkwB-33" target="VwRAQl57d2dZyOm9E2EN-13">
          <mxGeometry width="50" height="50" relative="1" as="geometry">
            <mxPoint x="440" y="360" as="sourcePoint" />
            <mxPoint x="490" y="310" as="targetPoint" />
          </mxGeometry>
        </mxCell>
        <mxCell id="VwRAQl57d2dZyOm9E2EN-30" style="edgeStyle=orthogonalEdgeStyle;rounded=0;orthogonalLoop=1;jettySize=auto;html=1;entryX=0.5;entryY=0;entryDx=0;entryDy=0;fontSize=9;fillColor=#dae8fc;strokeColor=#6c8ebf;" edge="1" parent="1" source="VwRAQl57d2dZyOm9E2EN-23" target="VwRAQl57d2dZyOm9E2EN-26">
          <mxGeometry relative="1" as="geometry">
            <Array as="points">
              <mxPoint x="654" y="400" />
            </Array>
          </mxGeometry>
        </mxCell>
        <mxCell id="VwRAQl57d2dZyOm9E2EN-31" style="edgeStyle=orthogonalEdgeStyle;rounded=0;orthogonalLoop=1;jettySize=auto;html=1;fontSize=9;entryX=0.812;entryY=0.022;entryDx=0;entryDy=0;entryPerimeter=0;fillColor=#dae8fc;strokeColor=#6c8ebf;" edge="1" parent="1" source="VwRAQl57d2dZyOm9E2EN-23" target="VwRAQl57d2dZyOm9E2EN-27">
          <mxGeometry relative="1" as="geometry">
            <Array as="points">
              <mxPoint x="810" y="405" />
              <mxPoint x="810" y="451" />
            </Array>
          </mxGeometry>
        </mxCell>
        <mxCell id="VwRAQl57d2dZyOm9E2EN-32" style="edgeStyle=orthogonalEdgeStyle;rounded=0;orthogonalLoop=1;jettySize=auto;html=1;entryX=0.873;entryY=0;entryDx=0;entryDy=0;entryPerimeter=0;fontSize=9;fillColor=#f8cecc;strokeColor=#b85450;" edge="1" parent="1" source="VwRAQl57d2dZyOm9E2EN-23" target="VwRAQl57d2dZyOm9E2EN-28">
          <mxGeometry relative="1" as="geometry">
            <Array as="points">
              <mxPoint x="856" y="405" />
            </Array>
          </mxGeometry>
        </mxCell>
        <mxCell id="VwRAQl57d2dZyOm9E2EN-34" style="edgeStyle=orthogonalEdgeStyle;rounded=0;orthogonalLoop=1;jettySize=auto;html=1;entryX=0.594;entryY=0.044;entryDx=0;entryDy=0;entryPerimeter=0;fontSize=9;fillColor=#f8cecc;strokeColor=#b85450;" edge="1" parent="1" source="VwRAQl57d2dZyOm9E2EN-23" target="VwRAQl57d2dZyOm9E2EN-29">
          <mxGeometry relative="1" as="geometry" />
        </mxCell>
        <mxCell id="VwRAQl57d2dZyOm9E2EN-23" value="&lt;font style=&quot;font-size: 10px;&quot;&gt;유저 리뷰 데이터 존재&lt;/font&gt;" style="rounded=0;whiteSpace=wrap;html=1;fillColor=#dae8fc;strokeColor=#6c8ebf;" vertex="1" parent="1">
          <mxGeometry x="680" y="390" width="110" height="30" as="geometry" />
        </mxCell>
        <mxCell id="VwRAQl57d2dZyOm9E2EN-26" value="&lt;span style=&quot;font-size: 10px;&quot;&gt;리뷰 작성 전&lt;br&gt;&lt;/span&gt;" style="rounded=0;whiteSpace=wrap;html=1;fillColor=#ffe6cc;strokeColor=#d79b00;" vertex="1" parent="1">
          <mxGeometry x="599" y="450" width="110" height="30" as="geometry" />
        </mxCell>
        <mxCell id="VwRAQl57d2dZyOm9E2EN-27" value="&lt;span style=&quot;font-size: 10px;&quot;&gt;리뷰 작성 후&lt;/span&gt;" style="rounded=0;whiteSpace=wrap;html=1;fillColor=#ffe6cc;strokeColor=#d79b00;" vertex="1" parent="1">
          <mxGeometry x="720" y="450" width="110" height="30" as="geometry" />
        </mxCell>
        <mxCell id="VwRAQl57d2dZyOm9E2EN-28" value="&lt;span style=&quot;font-size: 10px;&quot;&gt;리뷰 빈 작성창&lt;/span&gt;" style="rounded=0;whiteSpace=wrap;html=1;fillColor=#ffe6cc;strokeColor=#d79b00;" vertex="1" parent="1">
          <mxGeometry x="760" y="530" width="110" height="30" as="geometry" />
        </mxCell>
        <mxCell id="VwRAQl57d2dZyOm9E2EN-29" value="&lt;span style=&quot;font-size: 10px;&quot;&gt;리뷰 빈 작성완료창&lt;br&gt;&lt;/span&gt;" style="rounded=0;whiteSpace=wrap;html=1;fillColor=#ffe6cc;strokeColor=#d79b00;" vertex="1" parent="1">
          <mxGeometry x="880" y="530" width="110" height="30" as="geometry" />
        </mxCell>
        <mxCell id="VwRAQl57d2dZyOm9E2EN-38" style="edgeStyle=orthogonalEdgeStyle;rounded=0;orthogonalLoop=1;jettySize=auto;html=1;entryX=0;entryY=0.5;entryDx=0;entryDy=0;fontSize=9;fillColor=#f8cecc;strokeColor=#b85450;" edge="1" parent="1" source="VwRAQl57d2dZyOm9E2EN-35" target="VwRAQl57d2dZyOm9E2EN-37">
          <mxGeometry relative="1" as="geometry">
            <Array as="points">
              <mxPoint x="1000" y="285" />
            </Array>
          </mxGeometry>
        </mxCell>
        <mxCell id="VwRAQl57d2dZyOm9E2EN-40" style="edgeStyle=orthogonalEdgeStyle;rounded=0;orthogonalLoop=1;jettySize=auto;html=1;entryX=0;entryY=0.5;entryDx=0;entryDy=0;fontSize=9;fillColor=#dae8fc;strokeColor=#6c8ebf;" edge="1" parent="1" source="VwRAQl57d2dZyOm9E2EN-35" target="VwRAQl57d2dZyOm9E2EN-39">
          <mxGeometry relative="1" as="geometry">
            <Array as="points">
              <mxPoint x="1000" y="365" />
            </Array>
          </mxGeometry>
        </mxCell>
        <mxCell id="VwRAQl57d2dZyOm9E2EN-35" value="&lt;span style=&quot;font-size: 10px;&quot;&gt;유저 AS 신청 내역&lt;br&gt;&lt;/span&gt;" style="rounded=0;whiteSpace=wrap;html=1;fillColor=#dae8fc;strokeColor=#6c8ebf;" vertex="1" parent="1">
          <mxGeometry x="950" y="320" width="110" height="30" as="geometry" />
        </mxCell>
        <mxCell id="VwRAQl57d2dZyOm9E2EN-37" value="기본 장비 AS창" style="rounded=0;whiteSpace=wrap;html=1;fillColor=#ffe6cc;strokeColor=#d79b00;" vertex="1" parent="1">
          <mxGeometry x="1100" y="270" width="110" height="30" as="geometry" />
        </mxCell>
        <mxCell id="VwRAQl57d2dZyOm9E2EN-42" style="edgeStyle=orthogonalEdgeStyle;rounded=0;orthogonalLoop=1;jettySize=auto;html=1;entryX=0;entryY=0.5;entryDx=0;entryDy=0;fontSize=9;" edge="1" parent="1" source="VwRAQl57d2dZyOm9E2EN-39" target="VwRAQl57d2dZyOm9E2EN-41">
          <mxGeometry relative="1" as="geometry" />
        </mxCell>
        <mxCell id="VwRAQl57d2dZyOm9E2EN-39" value="장비 AS 간단 조회" style="rounded=0;whiteSpace=wrap;html=1;fillColor=#ffe6cc;strokeColor=#d79b00;" vertex="1" parent="1">
          <mxGeometry x="1100" y="350" width="110" height="30" as="geometry" />
        </mxCell>
        <mxCell id="VwRAQl57d2dZyOm9E2EN-41" value="장비 AS 상세 조회" style="rounded=0;whiteSpace=wrap;html=1;fillColor=#ffe6cc;strokeColor=#d79b00;" vertex="1" parent="1">
          <mxGeometry x="1270" y="350" width="110" height="30" as="geometry" />
        </mxCell>
        <mxCell id="VwRAQl57d2dZyOm9E2EN-59" style="edgeStyle=orthogonalEdgeStyle;rounded=0;orthogonalLoop=1;jettySize=auto;html=1;entryX=0;entryY=0.5;entryDx=0;entryDy=0;fontSize=9;" edge="1" parent="1" source="VwRAQl57d2dZyOm9E2EN-44" target="VwRAQl57d2dZyOm9E2EN-55">
          <mxGeometry relative="1" as="geometry" />
        </mxCell>
        <mxCell id="VwRAQl57d2dZyOm9E2EN-60" style="edgeStyle=orthogonalEdgeStyle;rounded=0;orthogonalLoop=1;jettySize=auto;html=1;entryX=0;entryY=0.25;entryDx=0;entryDy=0;fontSize=9;" edge="1" parent="1" source="VwRAQl57d2dZyOm9E2EN-44" target="cXizYQNHtDUrmTa4HkwB-32">
          <mxGeometry relative="1" as="geometry">
            <Array as="points">
              <mxPoint x="827" y="70" />
              <mxPoint x="150" y="70" />
              <mxPoint x="150" y="328" />
              <mxPoint x="190" y="328" />
            </Array>
          </mxGeometry>
        </mxCell>
        <mxCell id="VwRAQl57d2dZyOm9E2EN-44" value="인테리어 간단 조회" style="rounded=0;whiteSpace=wrap;html=1;fillColor=#ffe6cc;strokeColor=#d79b00;" vertex="1" parent="1">
          <mxGeometry x="772" y="90" width="110" height="30" as="geometry" />
        </mxCell>
        <mxCell id="VwRAQl57d2dZyOm9E2EN-58" style="edgeStyle=orthogonalEdgeStyle;rounded=0;orthogonalLoop=1;jettySize=auto;html=1;entryX=0;entryY=0.5;entryDx=0;entryDy=0;fontSize=9;" edge="1" parent="1" source="VwRAQl57d2dZyOm9E2EN-47" target="VwRAQl57d2dZyOm9E2EN-56">
          <mxGeometry relative="1" as="geometry" />
        </mxCell>
        <mxCell id="VwRAQl57d2dZyOm9E2EN-62" style="edgeStyle=orthogonalEdgeStyle;rounded=0;orthogonalLoop=1;jettySize=auto;html=1;entryX=0;entryY=0.5;entryDx=0;entryDy=0;fontSize=9;exitX=1;exitY=0.5;exitDx=0;exitDy=0;" edge="1" parent="1" source="VwRAQl57d2dZyOm9E2EN-47" target="cXizYQNHtDUrmTa4HkwB-32">
          <mxGeometry relative="1" as="geometry">
            <mxPoint x="900" y="145" as="sourcePoint" />
            <Array as="points">
              <mxPoint x="882" y="140" />
              <mxPoint x="900" y="140" />
              <mxPoint x="900" y="60" />
              <mxPoint x="140" y="60" />
              <mxPoint x="140" y="335" />
            </Array>
          </mxGeometry>
        </mxCell>
        <mxCell id="VwRAQl57d2dZyOm9E2EN-47" value="리모델링 간단 조회" style="rounded=0;whiteSpace=wrap;html=1;fillColor=#ffe6cc;strokeColor=#d79b00;" vertex="1" parent="1">
          <mxGeometry x="772" y="130" width="110" height="30" as="geometry" />
        </mxCell>
        <mxCell id="VwRAQl57d2dZyOm9E2EN-48" value="AS 간단 조회" style="rounded=0;whiteSpace=wrap;html=1;fillColor=#ffe6cc;strokeColor=#d79b00;" vertex="1" parent="1">
          <mxGeometry x="772" y="180" width="110" height="30" as="geometry" />
        </mxCell>
        <mxCell id="VwRAQl57d2dZyOm9E2EN-55" value="인테리어 이전내역" style="rounded=0;whiteSpace=wrap;html=1;fillColor=#ffe6cc;strokeColor=#d79b00;" vertex="1" parent="1">
          <mxGeometry x="930" y="90" width="110" height="30" as="geometry" />
        </mxCell>
        <mxCell id="VwRAQl57d2dZyOm9E2EN-56" value="리모델링 이전내역" style="rounded=0;whiteSpace=wrap;html=1;fillColor=#ffe6cc;strokeColor=#d79b00;" vertex="1" parent="1">
          <mxGeometry x="930" y="130" width="110" height="30" as="geometry" />
        </mxCell>
      </root>
    </mxGraphModel>
  </diagram>
</mxfile>
